<svg width="93" height="27" viewBox="0 0 93 27" fill="none" xmlns="http://www.w3.org/2000/svg">
<path fill-rule="evenodd" clip-rule="evenodd" d="M32 13.4998C32 14.4153 31.259 15.1574 30.3448 15.1574H5.65111L12.1886 21.7046C12.835 22.3519 12.835 23.4015 12.1886 24.0488C11.5422 24.6961 10.4942 24.6961 9.84786 24.0488L0.48479 14.6719C0.174384 14.3611 -1.91884e-08 13.9394 0 13.4998C1.91884e-08 13.0602 0.174384 12.6386 0.48479 12.3277L9.84786 2.95084C10.4942 2.3035 11.5422 2.3035 12.1886 2.95084C12.835 3.59817 12.835 4.64772 12.1886 5.29505L5.65111 11.8422H30.3448C31.259 11.8422 32 12.5843 32 13.4998Z" fill="#37290C"/>
<path d="M50.3828 6.72266H54.4258C56.2096 6.72266 57.5508 6.98958 58.4492 7.52344C59.3477 8.05729 59.7969 8.96549 59.7969 10.248C59.7969 10.8014 59.6895 11.2995 59.4746 11.7422C59.2663 12.1784 58.9603 12.5397 58.5566 12.8262C58.153 13.1126 57.6549 13.3112 57.0625 13.4219V13.5195C57.6875 13.6172 58.2409 13.7962 58.7227 14.0566C59.2044 14.3171 59.582 14.6816 59.8555 15.1504C60.1289 15.6191 60.2656 16.2148 60.2656 16.9375C60.2656 17.8164 60.0605 18.5586 59.6504 19.1641C59.2467 19.7695 58.6738 20.2285 57.9316 20.541C57.1895 20.847 56.3105 21 55.2949 21H50.3828V6.72266ZM52.043 12.8457H54.7773C56.0208 12.8457 56.8802 12.6406 57.3555 12.2305C57.8372 11.8203 58.0781 11.2214 58.0781 10.4336C58.0781 9.61979 57.7917 9.03385 57.2188 8.67578C56.6523 8.31771 55.7474 8.13867 54.5039 8.13867H52.043V12.8457ZM52.043 14.2422V19.584H55.0117C56.2812 19.584 57.1797 19.3366 57.707 18.8418C58.2344 18.3405 58.498 17.6667 58.498 16.8203C58.498 16.2799 58.3776 15.8177 58.1367 15.4336C57.9023 15.0495 57.5182 14.7565 56.9844 14.5547C56.457 14.3464 55.7507 14.2422 54.8652 14.2422H52.043ZM67.0723 10.1211C68.3483 10.1211 69.2956 10.4076 69.9141 10.9805C70.5326 11.5534 70.8418 12.4681 70.8418 13.7246V21H69.6602L69.3477 19.418H69.2695C68.9701 19.8086 68.6576 20.1374 68.332 20.4043C68.0065 20.6647 67.6289 20.8633 67.1992 21C66.776 21.1302 66.2552 21.1953 65.6367 21.1953C64.9857 21.1953 64.4062 21.0814 63.8984 20.8535C63.3971 20.6257 63 20.2806 62.707 19.8184C62.4206 19.3561 62.2773 18.7702 62.2773 18.0605C62.2773 16.9928 62.7005 16.1725 63.5469 15.5996C64.3932 15.0267 65.6823 14.7142 67.4141 14.6621L69.2598 14.584V13.9297C69.2598 13.0052 69.0612 12.3574 68.6641 11.9863C68.2669 11.6152 67.707 11.4297 66.9844 11.4297C66.4245 11.4297 65.8906 11.5111 65.3828 11.6738C64.875 11.8366 64.3932 12.0286 63.9375 12.25L63.4395 11.0195C63.9212 10.7721 64.4746 10.5605 65.0996 10.3848C65.7246 10.209 66.3822 10.1211 67.0723 10.1211ZM69.2402 15.7266L67.6094 15.7949C66.2747 15.847 65.334 16.0651 64.7871 16.4492C64.2402 16.8333 63.9668 17.377 63.9668 18.0801C63.9668 18.6921 64.1523 19.1445 64.5234 19.4375C64.8945 19.7305 65.3861 19.877 65.998 19.877C66.9486 19.877 67.7266 19.6133 68.332 19.0859C68.9375 18.5586 69.2402 17.7676 69.2402 16.7129V15.7266ZM78.4688 21.1953C77.5052 21.1953 76.6556 20.9967 75.9199 20.5996C75.1842 20.2025 74.6113 19.597 74.2012 18.7832C73.791 17.9694 73.5859 16.944 73.5859 15.707C73.5859 14.4115 73.8008 13.3535 74.2305 12.5332C74.6667 11.7064 75.2656 11.0944 76.0273 10.6973C76.7891 10.3001 77.6549 10.1016 78.625 10.1016C79.1589 10.1016 79.6732 10.1569 80.168 10.2676C80.6693 10.3717 81.0794 10.5052 81.3984 10.668L80.9102 12.0254C80.5846 11.8952 80.207 11.778 79.7773 11.6738C79.3542 11.5697 78.957 11.5176 78.5859 11.5176C77.8438 11.5176 77.2253 11.6771 76.7305 11.9961C76.2422 12.3151 75.8743 12.7839 75.627 13.4023C75.3861 14.0208 75.2656 14.7826 75.2656 15.6875C75.2656 16.5534 75.3828 17.2923 75.6172 17.9043C75.8581 18.5163 76.2129 18.985 76.6816 19.3105C77.1569 19.6296 77.7493 19.7891 78.459 19.7891C79.0254 19.7891 79.5365 19.7305 79.9922 19.6133C80.4479 19.4896 80.8613 19.3464 81.2324 19.1836V20.6289C80.8743 20.8112 80.474 20.9512 80.0312 21.0488C79.5951 21.1465 79.0742 21.1953 78.4688 21.1953ZM85.3828 5.80469V13.6953C85.3828 13.9557 85.373 14.2747 85.3535 14.6523C85.334 15.0234 85.3177 15.3522 85.3047 15.6387H85.373C85.5098 15.4694 85.7083 15.2188 85.9688 14.8867C86.2357 14.5547 86.4603 14.2878 86.6426 14.0859L90.1973 10.2969H92.1016L87.7949 14.8672L92.4141 21H90.4609L86.6816 15.9316L85.3828 17.123V21H83.7715V5.80469H85.3828Z" fill="#37290C"/>
</svg>
