<svg width="200" height="28" viewBox="0 0 200 28" fill="none" xmlns="http://www.w3.org/2000/svg">
<path d="M80.2051 21.5V7.22266H81.8652V20.0156H88.2031V21.5H80.2051ZM99.6387 16.1289C99.6387 17.0078 99.5247 17.7923 99.2969 18.4824C99.069 19.1725 98.7402 19.7552 98.3105 20.2305C97.8809 20.7057 97.36 21.0703 96.748 21.3242C96.1426 21.5716 95.4557 21.6953 94.6875 21.6953C93.9714 21.6953 93.3138 21.5716 92.7148 21.3242C92.1224 21.0703 91.6081 20.7057 91.1719 20.2305C90.7422 19.7552 90.4069 19.1725 90.166 18.4824C89.9316 17.7923 89.8145 17.0078 89.8145 16.1289C89.8145 14.957 90.013 13.9609 90.4102 13.1406C90.8073 12.3138 91.3737 11.6855 92.1094 11.2559C92.8516 10.8197 93.7337 10.6016 94.7559 10.6016C95.7324 10.6016 96.5853 10.8197 97.3145 11.2559C98.0501 11.6921 98.6198 12.3236 99.0234 13.1504C99.4336 13.9707 99.6387 14.9635 99.6387 16.1289ZM91.4941 16.1289C91.4941 16.9883 91.6081 17.7337 91.8359 18.3652C92.0638 18.9967 92.4154 19.485 92.8906 19.8301C93.3659 20.1751 93.9779 20.3477 94.7266 20.3477C95.4688 20.3477 96.0775 20.1751 96.5527 19.8301C97.0345 19.485 97.3893 18.9967 97.6172 18.3652C97.8451 17.7337 97.959 16.9883 97.959 16.1289C97.959 15.276 97.8451 14.5404 97.6172 13.9219C97.3893 13.2969 97.0378 12.8151 96.5625 12.4766C96.0872 12.138 95.472 11.9688 94.7168 11.9688C93.6035 11.9688 92.7865 12.3366 92.2656 13.0723C91.7513 13.8079 91.4941 14.8268 91.4941 16.1289ZM105.43 26.3047C104.023 26.3047 102.939 26.041 102.178 25.5137C101.416 24.9928 101.035 24.2604 101.035 23.3164C101.035 22.6458 101.247 22.0729 101.67 21.5977C102.1 21.1224 102.692 20.8066 103.447 20.6504C103.167 20.5202 102.926 20.3249 102.725 20.0645C102.529 19.804 102.432 19.5046 102.432 19.166C102.432 18.7754 102.539 18.4336 102.754 18.1406C102.975 17.8411 103.311 17.5547 103.76 17.2812C103.2 17.0534 102.744 16.6693 102.393 16.1289C102.048 15.582 101.875 14.9473 101.875 14.2246C101.875 13.4564 102.035 12.8021 102.354 12.2617C102.673 11.7148 103.135 11.2982 103.74 11.0117C104.346 10.7253 105.078 10.582 105.938 10.582C106.126 10.582 106.315 10.5918 106.504 10.6113C106.699 10.6243 106.885 10.6471 107.061 10.6797C107.236 10.7057 107.389 10.7383 107.52 10.7773H111.191V11.8223L109.219 12.0664C109.414 12.3203 109.577 12.6263 109.707 12.9844C109.837 13.3424 109.902 13.7396 109.902 14.1758C109.902 15.2435 109.541 16.0931 108.818 16.7246C108.096 17.3496 107.103 17.6621 105.84 17.6621C105.54 17.6621 105.234 17.6361 104.922 17.584C104.603 17.7598 104.359 17.9551 104.189 18.1699C104.027 18.3848 103.945 18.6322 103.945 18.9121C103.945 19.1204 104.007 19.2865 104.131 19.4102C104.261 19.5339 104.447 19.625 104.688 19.6836C104.928 19.7357 105.218 19.7617 105.557 19.7617H107.441C108.607 19.7617 109.499 20.0059 110.117 20.4941C110.742 20.9824 111.055 21.6953 111.055 22.6328C111.055 23.8177 110.573 24.7259 109.609 25.3574C108.646 25.9889 107.253 26.3047 105.43 26.3047ZM105.479 25.0352C106.364 25.0352 107.096 24.944 107.676 24.7617C108.262 24.5859 108.698 24.3288 108.984 23.9902C109.277 23.6582 109.424 23.2611 109.424 22.7988C109.424 22.3691 109.326 22.0436 109.131 21.8223C108.936 21.6074 108.649 21.4642 108.271 21.3926C107.894 21.3145 107.432 21.2754 106.885 21.2754H105.029C104.548 21.2754 104.128 21.3503 103.77 21.5C103.411 21.6497 103.135 21.8711 102.939 22.1641C102.751 22.457 102.656 22.8216 102.656 23.2578C102.656 23.8372 102.9 24.2767 103.389 24.5762C103.877 24.8822 104.574 25.0352 105.479 25.0352ZM105.898 16.4805C106.673 16.4805 107.256 16.2852 107.646 15.8945C108.037 15.5039 108.232 14.9342 108.232 14.1855C108.232 13.3848 108.034 12.7858 107.637 12.3887C107.24 11.985 106.654 11.7832 105.879 11.7832C105.137 11.7832 104.564 11.9915 104.16 12.4082C103.763 12.8184 103.564 13.4206 103.564 14.2148C103.564 14.944 103.766 15.5039 104.17 15.8945C104.574 16.2852 105.15 16.4805 105.898 16.4805ZM131.123 14.3418C131.123 15.4421 130.983 16.4447 130.703 17.3496C130.423 18.248 130.007 19.0228 129.453 19.6738C128.906 20.3184 128.226 20.8164 127.412 21.168C126.598 21.5195 125.654 21.6953 124.58 21.6953C123.473 21.6953 122.507 21.5195 121.68 21.168C120.859 20.8164 120.176 20.3151 119.629 19.6641C119.089 19.013 118.682 18.235 118.408 17.3301C118.141 16.4251 118.008 15.4225 118.008 14.3223C118.008 12.8639 118.249 11.5846 118.73 10.4844C119.212 9.38411 119.941 8.52799 120.918 7.91602C121.901 7.30404 123.132 6.99805 124.609 6.99805C126.022 6.99805 127.21 7.30078 128.174 7.90625C129.144 8.51172 129.876 9.36458 130.371 10.4648C130.872 11.5586 131.123 12.8509 131.123 14.3418ZM119.756 14.3418C119.756 15.5527 119.928 16.6009 120.273 17.4863C120.618 18.3717 121.146 19.0553 121.855 19.5371C122.572 20.0189 123.48 20.2598 124.58 20.2598C125.687 20.2598 126.592 20.0189 127.295 19.5371C128.005 19.0553 128.529 18.3717 128.867 17.4863C129.206 16.6009 129.375 15.5527 129.375 14.3418C129.375 12.4993 128.988 11.0605 128.213 10.0254C127.445 8.98372 126.243 8.46289 124.609 8.46289C123.503 8.46289 122.591 8.70052 121.875 9.17578C121.159 9.65104 120.625 10.3281 120.273 11.207C119.928 12.0794 119.756 13.1243 119.756 14.3418ZM142.9 10.7969V21.5H141.572L141.338 19.9961H141.25C141.029 20.3672 140.742 20.6797 140.391 20.9336C140.039 21.1875 139.642 21.3763 139.199 21.5C138.763 21.6302 138.298 21.6953 137.803 21.6953C136.956 21.6953 136.247 21.5586 135.674 21.2852C135.101 21.0117 134.668 20.5885 134.375 20.0156C134.089 19.4427 133.945 18.707 133.945 17.8086V10.7969H135.586V17.6914C135.586 18.5833 135.788 19.2507 136.191 19.6934C136.595 20.1296 137.21 20.3477 138.037 20.3477C138.831 20.3477 139.463 20.1979 139.932 19.8984C140.407 19.599 140.749 19.1595 140.957 18.5801C141.165 17.9941 141.27 17.278 141.27 16.4316V10.7969H142.9ZM149.785 20.3672C150.052 20.3672 150.326 20.3444 150.605 20.2988C150.885 20.2533 151.113 20.1979 151.289 20.1328V21.3926C151.1 21.4772 150.837 21.5488 150.498 21.6074C150.166 21.666 149.84 21.6953 149.521 21.6953C148.955 21.6953 148.441 21.5977 147.979 21.4023C147.516 21.2005 147.145 20.862 146.865 20.3867C146.592 19.9115 146.455 19.2539 146.455 18.4141V12.0664H144.932V11.2754L146.465 10.6406L147.109 8.31641H148.086V10.7969H151.221V12.0664H148.086V18.3652C148.086 19.0358 148.239 19.5371 148.545 19.8691C148.857 20.2012 149.271 20.3672 149.785 20.3672Z" fill="#37290C"/>
<path fill-rule="evenodd" clip-rule="evenodd" d="M168 13.9998C168 14.9153 168.741 15.6574 169.655 15.6574H194.349L187.811 22.2046C187.165 22.8519 187.165 23.9015 187.811 24.5488C188.458 25.1961 189.506 25.1961 190.152 24.5488L199.515 15.1719C199.826 14.8611 200 14.4394 200 13.9998C200 13.5602 199.826 13.1386 199.515 12.8277L190.152 3.45084C189.506 2.8035 188.458 2.8035 187.811 3.45084C187.165 4.09817 187.165 5.14772 187.811 5.79505L194.349 12.3422H169.655C168.741 12.3422 168 13.0843 168 13.9998Z" fill="#37290C"/>
</svg>
