<svg width="92" height="27" viewBox="0 0 92 27" fill="none" xmlns="http://www.w3.org/2000/svg">
<path d="M13.1719 21H11.2578L3.47461 9.00781H3.39648C3.41602 9.32682 3.4388 9.69141 3.46484 10.1016C3.49089 10.5052 3.51042 10.9382 3.52344 11.4004C3.54297 11.8561 3.55273 12.3216 3.55273 12.7969V21H2.00977V6.72266H3.91406L11.668 18.6758H11.7363C11.7233 18.4479 11.707 18.1257 11.6875 17.709C11.668 17.2858 11.6484 16.8333 11.6289 16.3516C11.6159 15.8633 11.6094 15.4108 11.6094 14.9941V6.72266H13.1719V21ZM20.9453 10.1016C21.8568 10.1016 22.638 10.3034 23.2891 10.707C23.9401 11.1107 24.4382 11.6771 24.7832 12.4062C25.1283 13.1289 25.3008 13.9753 25.3008 14.9453V15.9512H17.9082C17.9277 17.2077 18.2402 18.1647 18.8457 18.8223C19.4512 19.4798 20.304 19.8086 21.4043 19.8086C22.0814 19.8086 22.6803 19.7467 23.2012 19.623C23.722 19.4993 24.2624 19.3171 24.8223 19.0762V20.502C24.2819 20.7428 23.7448 20.9186 23.2109 21.0293C22.6836 21.14 22.0586 21.1953 21.3359 21.1953C20.3073 21.1953 19.4089 20.987 18.6406 20.5703C17.8789 20.1471 17.2865 19.5286 16.8633 18.7148C16.4401 17.901 16.2285 16.9049 16.2285 15.7266C16.2285 14.5742 16.4206 13.5781 16.8047 12.7383C17.1953 11.8919 17.7422 11.2409 18.4453 10.7852C19.1549 10.3294 19.9883 10.1016 20.9453 10.1016ZM20.9258 11.4297C20.0599 11.4297 19.3698 11.7129 18.8555 12.2793C18.3411 12.8457 18.0352 13.6367 17.9375 14.6523H23.6016C23.5951 14.0143 23.4941 13.4544 23.2988 12.9727C23.11 12.4844 22.8203 12.1068 22.4297 11.8398C22.0391 11.5664 21.5378 11.4297 20.9258 11.4297ZM30.6035 15.5215L26.9023 10.2969H28.7578L31.5801 14.418L34.3926 10.2969H36.2285L32.5273 15.5215L36.4336 21H34.5781L31.5801 16.6348L28.5625 21H26.7266L30.6035 15.5215ZM41.9805 19.8672C42.2474 19.8672 42.5208 19.8444 42.8008 19.7988C43.0807 19.7533 43.3086 19.6979 43.4844 19.6328V20.8926C43.2956 20.9772 43.0319 21.0488 42.6934 21.1074C42.3613 21.166 42.0358 21.1953 41.7168 21.1953C41.1504 21.1953 40.6361 21.0977 40.1738 20.9023C39.7116 20.7005 39.3405 20.362 39.0605 19.8867C38.7871 19.4115 38.6504 18.7539 38.6504 17.9141V11.5664H37.127V10.7754L38.6602 10.1406L39.3047 7.81641H40.2812V10.2969H43.416V11.5664H40.2812V17.8652C40.2812 18.5358 40.4342 19.0371 40.7402 19.3691C41.0527 19.7012 41.4661 19.8672 41.9805 19.8672Z" fill="#37290C"/>
<path fill-rule="evenodd" clip-rule="evenodd" d="M60 13.4998C60 14.4153 60.741 15.1574 61.6552 15.1574H86.3489L79.8114 21.7046C79.165 22.3519 79.165 23.4015 79.8114 24.0488C80.4578 24.6961 81.5058 24.6961 82.1521 24.0488L91.5152 14.6719C91.8256 14.3611 92 13.9394 92 13.4998C92 13.0602 91.8256 12.6386 91.5152 12.3277L82.1521 2.95084C81.5058 2.3035 80.4578 2.3035 79.8114 2.95084C79.165 3.59817 79.165 4.64772 79.8114 5.29505L86.3489 11.8422H61.6552C60.741 11.8422 60 12.5843 60 13.4998Z" fill="#37290C"/>
</svg>
