<svg width="200" height="28" viewBox="0 0 200 28" fill="none" xmlns="http://www.w3.org/2000/svg">
<path fill-rule="evenodd" clip-rule="evenodd" d="M32.5 13.9998C32.5 14.9153 31.759 15.6574 30.8448 15.6574H6.15111L12.6886 22.2046C13.335 22.8519 13.335 23.9015 12.6886 24.5488C12.0422 25.1961 10.9942 25.1961 10.3479 24.5488L0.98479 15.1719C0.674384 14.8611 0.5 14.4394 0.5 13.9998C0.5 13.5602 0.674384 13.1386 0.98479 12.8277L10.3479 3.45084C10.9942 2.8035 12.0422 2.8035 12.6886 3.45084C13.335 4.09817 13.335 5.14772 12.6886 5.79505L6.15111 12.3422H30.8448C31.759 12.3422 32.5 13.0843 32.5 13.9998Z" fill="#37290C"/>
<path d="M54.4492 7.22266C56.2917 7.22266 57.6361 7.58398 58.4824 8.30664C59.3353 9.02279 59.7617 10.0514 59.7617 11.3926C59.7617 11.998 59.6608 12.5742 59.459 13.1211C59.2637 13.6615 58.9447 14.14 58.502 14.5566C58.0592 14.9668 57.4766 15.2923 56.7539 15.5332C56.0378 15.7676 55.1589 15.8848 54.1172 15.8848H52.3789V21.5H50.7188V7.22266H54.4492ZM54.293 8.63867H52.3789V14.459H53.9316C54.8431 14.459 55.6016 14.3613 56.207 14.166C56.819 13.9707 57.278 13.6549 57.584 13.2188C57.89 12.776 58.043 12.1901 58.043 11.4609C58.043 10.5104 57.7402 9.80404 57.1348 9.3418C56.5293 8.87305 55.582 8.63867 54.293 8.63867ZM67.3691 10.6016C67.584 10.6016 67.8086 10.6146 68.043 10.6406C68.2773 10.6602 68.4857 10.6895 68.668 10.7285L68.4629 12.2324C68.2871 12.1868 68.0918 12.151 67.877 12.125C67.6621 12.099 67.4603 12.0859 67.2715 12.0859C66.8418 12.0859 66.4349 12.1738 66.0508 12.3496C65.6732 12.5189 65.3411 12.7663 65.0547 13.0918C64.7682 13.4108 64.5436 13.7982 64.3809 14.2539C64.2181 14.7031 64.1367 15.2044 64.1367 15.7578V21.5H62.5059V10.7969H63.8535L64.0293 12.7695H64.0977C64.319 12.3724 64.5859 12.0111 64.8984 11.6855C65.2109 11.3535 65.5723 11.0898 65.9824 10.8945C66.3991 10.6992 66.8613 10.6016 67.3691 10.6016ZM74.8105 10.6016C75.722 10.6016 76.5033 10.8034 77.1543 11.207C77.8053 11.6107 78.3034 12.1771 78.6484 12.9062C78.9935 13.6289 79.166 14.4753 79.166 15.4453V16.4512H71.7734C71.793 17.7077 72.1055 18.6647 72.7109 19.3223C73.3164 19.9798 74.1693 20.3086 75.2695 20.3086C75.9466 20.3086 76.5456 20.2467 77.0664 20.123C77.5872 19.9993 78.1276 19.8171 78.6875 19.5762V21.002C78.1471 21.2428 77.61 21.4186 77.0762 21.5293C76.5488 21.64 75.9238 21.6953 75.2012 21.6953C74.1725 21.6953 73.2741 21.487 72.5059 21.0703C71.7441 20.6471 71.1517 20.0286 70.7285 19.2148C70.3053 18.401 70.0938 17.4049 70.0938 16.2266C70.0938 15.0742 70.2858 14.0781 70.6699 13.2383C71.0605 12.3919 71.6074 11.7409 72.3105 11.2852C73.0202 10.8294 73.8535 10.6016 74.8105 10.6016ZM74.791 11.9297C73.9251 11.9297 73.235 12.2129 72.7207 12.7793C72.2064 13.3457 71.9004 14.1367 71.8027 15.1523H77.4668C77.4603 14.5143 77.3594 13.9544 77.1641 13.4727C76.9753 12.9844 76.6855 12.6068 76.2949 12.3398C75.9043 12.0664 75.403 11.9297 74.791 11.9297ZM84.2734 21.5L80.2109 10.7969H81.9492L84.3027 17.2715C84.4655 17.7142 84.6315 18.2025 84.8008 18.7363C84.9701 19.2702 85.0872 19.6999 85.1523 20.0254H85.2207C85.2988 19.6999 85.429 19.2702 85.6113 18.7363C85.7936 18.196 85.9596 17.7077 86.1094 17.2715L88.4629 10.7969H90.2012L86.1289 21.5H84.2734ZM93.541 10.7969V21.5H91.9199V10.7969H93.541ZM92.75 6.79297C93.0169 6.79297 93.2448 6.88086 93.4336 7.05664C93.6289 7.22591 93.7266 7.49284 93.7266 7.85742C93.7266 8.21549 93.6289 8.48242 93.4336 8.6582C93.2448 8.83398 93.0169 8.92188 92.75 8.92188C92.4701 8.92188 92.2357 8.83398 92.0469 8.6582C91.8646 8.48242 91.7734 8.21549 91.7734 7.85742C91.7734 7.49284 91.8646 7.22591 92.0469 7.05664C92.2357 6.88086 92.4701 6.79297 92.75 6.79297ZM106.207 16.1289C106.207 17.0078 106.093 17.7923 105.865 18.4824C105.637 19.1725 105.309 19.7552 104.879 20.2305C104.449 20.7057 103.928 21.0703 103.316 21.3242C102.711 21.5716 102.024 21.6953 101.256 21.6953C100.54 21.6953 99.8822 21.5716 99.2832 21.3242C98.6908 21.0703 98.1764 20.7057 97.7402 20.2305C97.3105 19.7552 96.9753 19.1725 96.7344 18.4824C96.5 17.7923 96.3828 17.0078 96.3828 16.1289C96.3828 14.957 96.5814 13.9609 96.9785 13.1406C97.3757 12.3138 97.9421 11.6855 98.6777 11.2559C99.4199 10.8197 100.302 10.6016 101.324 10.6016C102.301 10.6016 103.154 10.8197 103.883 11.2559C104.618 11.6921 105.188 12.3236 105.592 13.1504C106.002 13.9707 106.207 14.9635 106.207 16.1289ZM98.0625 16.1289C98.0625 16.9883 98.1764 17.7337 98.4043 18.3652C98.6322 18.9967 98.9837 19.485 99.459 19.8301C99.9342 20.1751 100.546 20.3477 101.295 20.3477C102.037 20.3477 102.646 20.1751 103.121 19.8301C103.603 19.485 103.958 18.9967 104.186 18.3652C104.413 17.7337 104.527 16.9883 104.527 16.1289C104.527 15.276 104.413 14.5404 104.186 13.9219C103.958 13.2969 103.606 12.8151 103.131 12.4766C102.656 12.138 102.04 11.9688 101.285 11.9688C100.172 11.9688 99.3548 12.3366 98.834 13.0723C98.3197 13.8079 98.0625 14.8268 98.0625 16.1289ZM117.848 10.7969V21.5H116.52L116.285 19.9961H116.197C115.976 20.3672 115.689 20.6797 115.338 20.9336C114.986 21.1875 114.589 21.3763 114.146 21.5C113.71 21.6302 113.245 21.6953 112.75 21.6953C111.904 21.6953 111.194 21.5586 110.621 21.2852C110.048 21.0117 109.615 20.5885 109.322 20.0156C109.036 19.4427 108.893 18.707 108.893 17.8086V10.7969H110.533V17.6914C110.533 18.5833 110.735 19.2507 111.139 19.6934C111.542 20.1296 112.158 20.3477 112.984 20.3477C113.779 20.3477 114.41 20.1979 114.879 19.8984C115.354 19.599 115.696 19.1595 115.904 18.5801C116.113 17.9941 116.217 17.278 116.217 16.4316V10.7969H117.848ZM128.199 18.5703C128.199 19.2539 128.027 19.8301 127.682 20.2988C127.343 20.7611 126.855 21.1094 126.217 21.3438C125.585 21.5781 124.83 21.6953 123.951 21.6953C123.202 21.6953 122.555 21.6367 122.008 21.5195C121.461 21.4023 120.982 21.2363 120.572 21.0215V19.5273C121.008 19.7422 121.529 19.9375 122.135 20.1133C122.74 20.2891 123.359 20.377 123.99 20.377C124.915 20.377 125.585 20.2272 126.002 19.9277C126.419 19.6283 126.627 19.2214 126.627 18.707C126.627 18.4141 126.542 18.1569 126.373 17.9355C126.21 17.7077 125.934 17.4896 125.543 17.2812C125.152 17.0664 124.612 16.832 123.922 16.5781C123.238 16.3177 122.646 16.0605 122.145 15.8066C121.65 15.5462 121.266 15.2305 120.992 14.8594C120.725 14.4883 120.592 14.0065 120.592 13.4141C120.592 12.5091 120.956 11.8158 121.686 11.334C122.421 10.8457 123.385 10.6016 124.576 10.6016C125.221 10.6016 125.823 10.6667 126.383 10.7969C126.949 10.9206 127.477 11.0898 127.965 11.3047L127.418 12.6035C126.975 12.4147 126.503 12.2552 126.002 12.125C125.501 11.9948 124.99 11.9297 124.469 11.9297C123.72 11.9297 123.144 12.0534 122.74 12.3008C122.343 12.5482 122.145 12.8867 122.145 13.3164C122.145 13.6484 122.236 13.9219 122.418 14.1367C122.607 14.3516 122.906 14.5534 123.316 14.7422C123.727 14.931 124.267 15.1523 124.938 15.4062C125.608 15.6536 126.188 15.9108 126.676 16.1777C127.164 16.4382 127.538 16.7572 127.799 17.1348C128.066 17.5059 128.199 17.9844 128.199 18.5703ZM148.629 14.3418C148.629 15.4421 148.489 16.4447 148.209 17.3496C147.929 18.248 147.512 19.0228 146.959 19.6738C146.412 20.3184 145.732 20.8164 144.918 21.168C144.104 21.5195 143.16 21.6953 142.086 21.6953C140.979 21.6953 140.012 21.5195 139.186 21.168C138.365 20.8164 137.682 20.3151 137.135 19.6641C136.594 19.013 136.188 18.235 135.914 17.3301C135.647 16.4251 135.514 15.4225 135.514 14.3223C135.514 12.8639 135.755 11.5846 136.236 10.4844C136.718 9.38411 137.447 8.52799 138.424 7.91602C139.407 7.30404 140.637 6.99805 142.115 6.99805C143.528 6.99805 144.716 7.30078 145.68 7.90625C146.65 8.51172 147.382 9.36458 147.877 10.4648C148.378 11.5586 148.629 12.8509 148.629 14.3418ZM137.262 14.3418C137.262 15.5527 137.434 16.6009 137.779 17.4863C138.124 18.3717 138.652 19.0553 139.361 19.5371C140.077 20.0189 140.986 20.2598 142.086 20.2598C143.193 20.2598 144.098 20.0189 144.801 19.5371C145.51 19.0553 146.035 18.3717 146.373 17.4863C146.712 16.6009 146.881 15.5527 146.881 14.3418C146.881 12.4993 146.493 11.0605 145.719 10.0254C144.951 8.98372 143.749 8.46289 142.115 8.46289C141.008 8.46289 140.097 8.70052 139.381 9.17578C138.665 9.65104 138.131 10.3281 137.779 11.207C137.434 12.0794 137.262 13.1243 137.262 14.3418ZM156.432 10.6016C156.646 10.6016 156.871 10.6146 157.105 10.6406C157.34 10.6602 157.548 10.6895 157.73 10.7285L157.525 12.2324C157.35 12.1868 157.154 12.151 156.939 12.125C156.725 12.099 156.523 12.0859 156.334 12.0859C155.904 12.0859 155.497 12.1738 155.113 12.3496C154.736 12.5189 154.404 12.7663 154.117 13.0918C153.831 13.4108 153.606 13.7982 153.443 14.2539C153.281 14.7031 153.199 15.2044 153.199 15.7578V21.5H151.568V10.7969H152.916L153.092 12.7695H153.16C153.382 12.3724 153.648 12.0111 153.961 11.6855C154.273 11.3535 154.635 11.0898 155.045 10.8945C155.462 10.6992 155.924 10.6016 156.432 10.6016ZM163.561 21.6953C162.206 21.6953 161.132 21.2331 160.338 20.3086C159.55 19.3841 159.156 18.0104 159.156 16.1875C159.156 14.3451 159.56 12.9551 160.367 12.0176C161.174 11.0736 162.249 10.6016 163.59 10.6016C164.156 10.6016 164.651 10.6764 165.074 10.8262C165.497 10.9759 165.862 11.1777 166.168 11.4316C166.474 11.679 166.731 11.9622 166.939 12.2812H167.057C167.031 12.0794 167.005 11.8027 166.979 11.4512C166.952 11.0996 166.939 10.8132 166.939 10.5918V6.30469H168.561V21.5H167.252L167.008 19.9766H166.939C166.738 20.2956 166.48 20.5853 166.168 20.8457C165.862 21.1061 165.494 21.3145 165.064 21.4707C164.641 21.6204 164.14 21.6953 163.561 21.6953ZM163.814 20.3477C164.96 20.3477 165.771 20.0221 166.246 19.3711C166.721 18.7201 166.959 17.7533 166.959 16.4707V16.1777C166.959 14.8171 166.731 13.7721 166.275 13.043C165.826 12.3138 165.006 11.9492 163.814 11.9492C162.818 11.9492 162.073 12.3333 161.578 13.1016C161.083 13.8633 160.836 14.9049 160.836 16.2266C160.836 17.5417 161.08 18.5573 161.568 19.2734C162.063 19.9896 162.812 20.3477 163.814 20.3477ZM176.119 10.6016C177.031 10.6016 177.812 10.8034 178.463 11.207C179.114 11.6107 179.612 12.1771 179.957 12.9062C180.302 13.6289 180.475 14.4753 180.475 15.4453V16.4512H173.082C173.102 17.7077 173.414 18.6647 174.02 19.3223C174.625 19.9798 175.478 20.3086 176.578 20.3086C177.255 20.3086 177.854 20.2467 178.375 20.123C178.896 19.9993 179.436 19.8171 179.996 19.5762V21.002C179.456 21.2428 178.919 21.4186 178.385 21.5293C177.857 21.64 177.232 21.6953 176.51 21.6953C175.481 21.6953 174.583 21.487 173.814 21.0703C173.053 20.6471 172.46 20.0286 172.037 19.2148C171.614 18.401 171.402 17.4049 171.402 16.2266C171.402 15.0742 171.594 14.0781 171.979 13.2383C172.369 12.3919 172.916 11.7409 173.619 11.2852C174.329 10.8294 175.162 10.6016 176.119 10.6016ZM176.1 11.9297C175.234 11.9297 174.544 12.2129 174.029 12.7793C173.515 13.3457 173.209 14.1367 173.111 15.1523H178.775C178.769 14.5143 178.668 13.9544 178.473 13.4727C178.284 12.9844 177.994 12.6068 177.604 12.3398C177.213 12.0664 176.712 11.9297 176.1 11.9297ZM188.092 10.6016C188.307 10.6016 188.531 10.6146 188.766 10.6406C189 10.6602 189.208 10.6895 189.391 10.7285L189.186 12.2324C189.01 12.1868 188.814 12.151 188.6 12.125C188.385 12.099 188.183 12.0859 187.994 12.0859C187.564 12.0859 187.158 12.1738 186.773 12.3496C186.396 12.5189 186.064 12.7663 185.777 13.0918C185.491 13.4108 185.266 13.7982 185.104 14.2539C184.941 14.7031 184.859 15.2044 184.859 15.7578V21.5H183.229V10.7969H184.576L184.752 12.7695H184.82C185.042 12.3724 185.309 12.0111 185.621 11.6855C185.934 11.3535 186.295 11.0898 186.705 10.8945C187.122 10.6992 187.584 10.6016 188.092 10.6016ZM198.336 18.5703C198.336 19.2539 198.163 19.8301 197.818 20.2988C197.48 20.7611 196.992 21.1094 196.354 21.3438C195.722 21.5781 194.967 21.6953 194.088 21.6953C193.339 21.6953 192.691 21.6367 192.145 21.5195C191.598 21.4023 191.119 21.2363 190.709 21.0215V19.5273C191.145 19.7422 191.666 19.9375 192.271 20.1133C192.877 20.2891 193.495 20.377 194.127 20.377C195.051 20.377 195.722 20.2272 196.139 19.9277C196.555 19.6283 196.764 19.2214 196.764 18.707C196.764 18.4141 196.679 18.1569 196.51 17.9355C196.347 17.7077 196.07 17.4896 195.68 17.2812C195.289 17.0664 194.749 16.832 194.059 16.5781C193.375 16.3177 192.783 16.0605 192.281 15.8066C191.786 15.5462 191.402 15.2305 191.129 14.8594C190.862 14.4883 190.729 14.0065 190.729 13.4141C190.729 12.5091 191.093 11.8158 191.822 11.334C192.558 10.8457 193.521 10.6016 194.713 10.6016C195.357 10.6016 195.96 10.6667 196.52 10.7969C197.086 10.9206 197.613 11.0898 198.102 11.3047L197.555 12.6035C197.112 12.4147 196.64 12.2552 196.139 12.125C195.637 11.9948 195.126 11.9297 194.605 11.9297C193.857 11.9297 193.281 12.0534 192.877 12.3008C192.48 12.5482 192.281 12.8867 192.281 13.3164C192.281 13.6484 192.372 13.9219 192.555 14.1367C192.743 14.3516 193.043 14.5534 193.453 14.7422C193.863 14.931 194.404 15.1523 195.074 15.4062C195.745 15.6536 196.324 15.9108 196.812 16.1777C197.301 16.4382 197.675 16.7572 197.936 17.1348C198.202 17.5059 198.336 17.9844 198.336 18.5703Z" fill="#37290C"/>
</svg>
